<svg id="Saxophonist-Logo" data-name="Saxophonist Logo" xmlns="http://www.w3.org/2000/svg" xmlns:xlink="http://www.w3.org/1999/xlink" width="65%" viewBox="0 0 193.151 352.993" style="background-color: var(--main-bg-color);">
 <link xmlns="http://www.w3.org/1999/xhtml" rel="stylesheet" href="../../src/styles/Global.css" type="text/css"/>
  <defs>
    <linearGradient id="linear-gradient" x1="0.447" y1="1.011" x2="0.447" y2="0.024" gradientUnits="objectBoundingBox">
      <stop offset="0" stop-color="#ef532b"/>
      <stop offset="0.043" stop-color="#dc5331"/>
      <stop offset="0.158" stop-color="#b0563f"/>
      <stop offset="0.278" stop-color="#8a574c"/>
      <stop offset="0.403" stop-color="#6b5956"/>
      <stop offset="0.532" stop-color="#535a5e"/>
      <stop offset="0.668" stop-color="#425b63"/>
      <stop offset="0.817" stop-color="#385b66"/>
      <stop offset="1" stop-color="#355c68"/>
    </linearGradient>
  </defs>
  <g id="Group_2155" data-name="Group 2155" transform="translate(1.299 -0.401)">
    <path id="Path_3375" data-name="Path 3375" d="M42.41,2872.119c-.019-.8-.7.32-.764-.781-.091-1.51.7,1.258.476-.437-4.1-31.2-31.2-55.663-64.006-55.663a64.6,64.6,0,0,0-64.6,64.6,64.507,64.507,0,0,0,25.849,51.692l48.908-.153,34.293-29.987-9.037-10.839,8.019-14.945,5.26-4.708,15.317.75Z" transform="translate(85.187 -2814.836)" fill="url(#linear-gradient)"/>
    <path id="Path_3326" data-name="Path 3326" d="M4252.626-480.095c6.6,2.689,16.839,4.282,20.7,4.816-.687,3.408-2.579,11.849-5.162,15.757-2.7,4.076-6.373,10.333-7.884,12.93-1.932-1.078-4.9-3.02-5.914-4.9C4252.792-460.021,4252.561-465.942,4252.626-480.095Z" transform="translate(-4139.208 696.159)" fill="#e8b09f"/>
    <circle id="Ellipse_21" data-name="Ellipse 21" cx="3.652" cy="3.652" r="3.652" transform="translate(121.025 225.209) rotate(-13.282)" fill="#003041"/>
    <circle id="Ellipse_22" data-name="Ellipse 22" cx="3.652" cy="3.652" r="3.652" transform="matrix(0.16, -0.987, 0.987, 0.16, 80.264, 274.536)" fill="#003041"/>
    <path id="Path_3327" data-name="Path 3327" d="M3974.986-1097.506a12.365,12.365,0,0,0-1.719-.329c-.578-.078-1.156-.12-1.737-.148a25.071,25.071,0,0,0-3.483.1,26.161,26.161,0,0,0-6.811,1.606c-.273.109-.549.21-.819.329l-.808.359c-.53.261-1.062.514-1.572.814-.518.282-1.015.607-1.509.93-.245.166-.482.344-.721.517-.118.089-.238.176-.354.266l-.344.281a15.673,15.673,0,0,0-4.39,5.448c.976-.657,1.871-1.326,2.819-1.912s1.868-1.162,2.832-1.667l.355-.2c.12-.063.243-.121.364-.182l.722-.369.73-.351c.12-.061.242-.118.366-.171l.369-.168c.246-.111.488-.228.739-.329s.493-.217.743-.32c.5-.2,1-.411,1.506-.6,2.018-.782,4.093-1.445,6.209-2.076S3972.745-1096.875,3974.986-1097.506Z" transform="translate(-3880.575 1225.512)" fill="#fff"/>
    <path id="Path_3328" data-name="Path 3328" d="M4493.166-26.279c2.418,3.609,2.789,7.59,4.2,11.525C4499.745-18.318,4498.284-26.022,4493.166-26.279Z" transform="translate(-4345.283 307.382)" fill="#950550"/>
    <path id="Path_3329" data-name="Path 3329" d="M4444.66,27.361c.37-4.657-4.335-10.823-9.378-9.977C4438.866,20.379,4441.426,24.082,4444.66,27.361Z" transform="translate(-4295.694 270.044)" fill="#950550"/>
    <path id="Path_3330" data-name="Path 3330" d="M4413.369,63.22c-.98,3.995,3.3,8.656,7.129,8.886C4418.81,68.912,4415.87,65.8,4413.369,63.22Z" transform="translate(-4276.8 230.709)" fill="#950550"/>
    <path id="Path_3331" data-name="Path 3331" d="M4245.59,138.83a3.738,3.738,0,0,1-.43.761c-.081.121-.162.242-.247.361s-.165.239-.252.357c-.339.474-.684.943-1.03,1.41l-2.074,2.789c-1.382,1.852-2.757,3.7-4.15,5.522s-2.795,3.641-4.234,5.435c-.721.9-1.446,1.794-2.19,2.684-.181.229-.375.443-.561.669l-.279.338-.285.333c-.375.452-.765.891-1.14,1.361a24.282,24.282,0,0,0,5.85-4.072,39.6,39.6,0,0,0,4.778-5.272,43.736,43.736,0,0,0,3.827-5.979,33.8,33.8,0,0,0,1.5-3.229c.217-.555.424-1.114.6-1.69.043-.143.086-.287.123-.433s.075-.291.106-.439.059-.3.081-.447c.011-.075.015-.153.021-.228A1.348,1.348,0,0,0,4245.59,138.83Z" transform="translate(-4118.734 165.936)" fill="#950550"/>
    <path id="Path_3332" data-name="Path 3332" d="M4010.88,38.834a15.909,15.909,0,0,0-1.872.879c-.607.327-1.2.683-1.78,1.054a33.754,33.754,0,0,0-3.324,2.463,38.214,38.214,0,0,0-5.72,5.989,37.762,37.762,0,0,0-4.3,7.081,33.719,33.719,0,0,0-1.493,3.859,26.071,26.071,0,0,0-.949,4.015c.183-.295.353-.592.523-.889s.329-.6.5-.888c.346-.586.665-1.178,1.017-1.754.669-1.166,1.38-2.3,2.082-3.429,1.435-2.242,2.939-4.417,4.552-6.513s3.313-4.126,5.109-6.093S4008.889,40.725,4010.88,38.834Z" transform="translate(-3915.46 251.601)" fill="#950550"/>
    <path id="Path_3333" data-name="Path 3333" d="M3959.616,237.746c.464,1.428.878,2.843,1.255,4.264s.72,2.838,1.016,4.261a67.009,67.009,0,0,1,1.24,8.574c.1,1.436.159,2.873.167,4.313-.01,1.439-.057,2.88-.168,4.324a75.1,75.1,0,0,1-1.263,8.716,24.579,24.579,0,0,0,1.924-4.081l.194-.533.1-.267.085-.27.328-1.087.082-.273c.025-.091.046-.184.068-.275l.133-.553.133-.554.065-.278.052-.28.207-1.121c.037-.187.059-.375.084-.564l.074-.565c.116-.753.15-1.513.216-2.273a37.65,37.65,0,0,0-.047-4.564,36.62,36.62,0,0,0-1.829-8.9,33.37,33.37,0,0,0-1.743-4.178q-.5-1.012-1.09-1.979A17.231,17.231,0,0,0,3959.616,237.746Z" transform="translate(-3888.199 81.196)" fill="#950550"/>
    <path id="Path_3334" data-name="Path 3334" d="M3846.411-1074.018c-7.056,4.807-10.638,16.153-11.069,24.415C3839.334-1057.614,3841.7-1066.328,3846.411-1074.018Z" transform="translate(-3781.735 1204.964)" fill="#fff"/>
    <path id="Path_3335" data-name="Path 3335" d="M4441.527-1072.936a2.532,2.532,0,0,1,3.014,1.942,2.8,2.8,0,0,1-.55,2.871,4.7,4.7,0,0,1-1.092-1.168,1.547,1.547,0,0,1-.329-.77,1.483,1.483,0,0,0,.007-.161.69.69,0,0,0-.007.161,6.044,6.044,0,0,1-.193.841,1.356,1.356,0,0,0,.057,1c.136.233.385.4.512.628a2.623,2.623,0,0,1-2.738-2.009A2.538,2.538,0,0,1,4441.527-1072.936Z" transform="translate(-4299.774 1204.118)" fill="#950550"/>
    <g id="Group_2153" data-name="Group 2153" transform="translate(38.088 106.329)">
      <path id="Path_3336" data-name="Path 3336" d="M3770.226-1245.782c-3.384,1.531-14.424,6.791-20.808,12.965.563-.451.96-.7,1.082-.633.827.445-5.6,8.806-7.725,12.551a60.713,60.713,0,0,0-3.221,6.61c-3.1,7.46-6.6,19.868-5.621,36.62,1.942,33.241-6.667,78.33-6.877,86.535a2.009,2.009,0,0,0,.626,1.776c3.148,2.653,16.792-1.612,27.831-3.029-2.2-6.227-5.053-13.893-8.6-23.146-6.682-17.427-11.158-42.529-10.551-49.086.382-4.125,10.321-25.338,15.492-36.149,1.432-2.993,4.1-7.011,4.811-6.665s-1.287,5.936-2.324,8.1c-6.767,14.154-14.837,31.857-15.125,34.974-.454,4.891,3.132,28.913,10.373,47.8,8.422,21.965,15.215,41.385,16.2,41.873,5.759,2.862,20.848,1.531,27.282-1.523,7.031-3.337,9.755-8.348,10.373-10.106-3.367-2.521-14.033-8.458-22.653-25.944a80.236,80.236,0,0,1-8.172-31.826c-1.5-31.25,14.691-55.585,14.691-55.585l-9.883,6.592s12.426-13.036,13.926-12.211a2.235,2.235,0,0,1,1.038,2.361c-.3,3.869-5.5,8.86-10.937,23.307,5.052,3.259,9.742,9.092,12.4,17.25.719,2.207,1.14,8.777.259,8.777-.7,0-2.282-5.7-2.924-7.711-2.328-7.278-6.361-12.489-10.741-15.538q-1.286,3.692-2.267,7.4a1.418,1.418,0,0,1,.511.256c.35.276,7.964,6.47,8.551,22.371.049,1.322-.673,5.546-1.438,5.546-.815,0-1.4-5.771-1.562-7.656-.915-10.706-5.273-15.98-6.8-17.518a80.386,80.386,0,0,0-1.341,29.184c.232.147,4.049,3.607,9.188,7.667,2.628,2.076,9.45,7.67,9.009,8.326s-15.713-10.08-17.459-11.574a77.331,77.331,0,0,0,6.519,19.313c8.438,17.115,19,22.782,21.809,24.931l.541-.414c-.833-2.268-2.77-8.36-4.912-20.774-2.827-16.378.338-41.587-2.524-74.5-.683-7.856-2.4-29.164-1.191-36.947-6.505-4.016-5.514-9.854-11.3-15.775-5.6-5.727-12.065-8.311-13.579-8.311-.791,0-2.256.791-2.256,0A.9.9,0,0,1,3770.226-1245.782Zm-16.583,24.616c-4.714,7.69-7.077,16.4-11.069,24.415C3743-1205.012,3746.587-1216.359,3753.643-1221.166Zm16.126,140.57a3.652,3.652,0,0,1,3.652-3.652,3.652,3.652,0,0,1,3.652,3.652,3.652,3.652,0,0,1-3.652,3.652A3.652,3.652,0,0,1,3769.769-1080.6Zm-.142-142.277a26.155,26.155,0,0,1,6.811-1.606,25.073,25.073,0,0,1,3.483-.1c.581.028,1.16.07,1.737.148a12.361,12.361,0,0,1,1.719.329c-2.24.631-4.393,1.2-6.514,1.832s-4.191,1.295-6.209,2.076c-.508.188-1,.4-1.506.6-.249.1-.495.216-.743.32s-.493.218-.739.329l-.369.168c-.124.054-.247.111-.367.172l-.73.351-.722.369c-.121.061-.244.119-.364.182l-.355.2c-.964.505-1.893,1.075-2.832,1.667s-1.843,1.256-2.819,1.912a15.663,15.663,0,0,1,4.39-5.448l.344-.281c.117-.091.236-.177.354-.266.239-.173.477-.351.722-.517.494-.323.99-.647,1.509-.93.51-.3,1.042-.554,1.572-.814l.808-.359C3769.077-1222.663,3769.354-1222.763,3769.627-1222.873Z" transform="translate(-3727.054 1245.782)" fill="#e8b09f"/>
    </g>
    <path id="Path_3337" data-name="Path 3337" d="M4245.346-1541.116a35.307,35.307,0,0,0-11.571-8.82c.795-1.3,1.566-2.6,2.3-3.874a8.977,8.977,0,0,0-4.037,3.065,46.7,46.7,0,0,0-7.006-2.419c.363-1.27.707-2.537,1.025-3.779a8.667,8.667,0,0,0-2.777,3.358,47.88,47.88,0,0,0-6.709-.987,31.993,31.993,0,0,0,.793-4.208,7.674,7.674,0,0,0-3.478,4.088,41.952,41.952,0,0,0-5.931.318,8.322,8.322,0,0,0,.117-1.62,3.362,3.362,0,0,0-1.922,1.893,34.415,34.415,0,0,0-3.873.909q1.782.1,3.534.256a3.254,3.254,0,0,0,.577,2.513,9.694,9.694,0,0,0,1.164-2.353q2.87.285,5.667.7a7.232,7.232,0,0,0,.777,4.435,29.691,29.691,0,0,0,1.708-4.032q3.32.578,6.557,1.369a8.8,8.8,0,0,0,.428,4.5c.469-1.315.921-2.672,1.351-4.046q3.232.86,6.4,1.957a8.54,8.54,0,0,0-.568,3.927c.753-1.075,1.5-2.193,2.237-3.328A89.772,89.772,0,0,1,4245.346-1541.116Z" transform="translate(-4096.083 1620.252)" fill="#950550"/>
    <path id="Path_3338" data-name="Path 3338" d="M3839.519-1411.391a92.33,92.33,0,0,0-25.4,19.041c4.335-8.493,10.112-19.841,16.12-31.733a7.823,7.823,0,0,0,3.663,3.528c1.383.568,3.061,1.033,4.354.265,1.68-1,1.523-3.191,1.8-4.838.394-2.321.375-2.23,1.4-3.739a10.119,10.119,0,0,0,2.1-7c-.162-2.8-.65-7.259-2.107-10.535,12.083-24.194,18.954-38.559,20.42-42.695,4.9-13.834-.606-23.172-11.432-25.758-11.251-2.688-17.729-6.327-23.1-12.979a90.506,90.506,0,0,0-11.7-11.348c.354-.255,1.96-2.01,1.96-2.01a3.392,3.392,0,0,1-3.124-2.907,5.708,5.708,0,0,0-1.181-2.77c.275-.339-.021-.03.833-.268,1.627-.452,2.354-2.239,2.759-3.545,0,0,.719-2.319,1.027-3.293-3.854,2.517-3.565,2.342-3.758,2.422-.26.841-.489,1.938-.668,2.7a11.677,11.677,0,0,0-3.937-1.245c-1.444-.323-.1-2.628-.1-2.628s-3.3,1.937-.974,3.659a16.609,16.609,0,0,0-7.906-.39c-1.53.113-1.874-2.275-1.874-2.275-.893.711-.67,2.515-.67,2.515-2.243-2.544-3.94-5.121-4.11-8.583-.321-6.526,1.038-7.93,1.038-7.93s-3.276-.965-6.228,2.632c-2.818-7.8,1.946-13.477,5.966-13.477,3.2,0,4.977,4.761,4.855,6.209a59.939,59.939,0,0,0,6.057-4.761h0a14.055,14.055,0,0,0,3.563-4.8c2.022,2.153,5.994,6.414,9.744,10.632-1.077-.364-7.951-.377-8,.413s4.331-.309,8.507,2.864a44.846,44.846,0,0,0-2.506,5.949l2.093,1.947.337-.22c.16-.459.321-.916.484-1.363q.457.238.924.444l1.426-.931a1.434,1.434,0,0,1,1.993,1.968,8.606,8.606,0,0,0,6.978-1.505c2.983-1.277,1.382-5.885-.135-8.768-2.225-4.227-4.073-7.667-5.225-9.8a3.032,3.032,0,0,0,2.37-.8c1.492-1.481.573-3.912-.7-7.277-2.412-6.378-6.537-19.819-23.42-24.121-8.308-2.117-22.1-4.309-26.78,2.9a133.891,133.891,0,0,0-7.863,14,7.461,7.461,0,0,0-.32,4.459c-4.924,4.458-4.709,12.619-3.974,19.214-1.073.9-2.4,2.046-4.045,3.526-2.622,2.358-8.27,6.087-8.27,6.879s1.465,0,2.256,0c1.514,0,7.979,2.584,13.579,8.311,5.789,5.921,4.8,11.759,11.3,15.775-1.208,7.783.508,29.091,1.191,36.947,2.862,32.913-.3,58.122,2.523,74.5,2.142,12.413,4.079,18.505,4.912,20.773l-.541.414c-2.807-2.149-13.372-7.816-21.809-24.931a77.309,77.309,0,0,1-6.52-19.313c1.746,1.494,17.019,12.229,17.459,11.574s-6.38-6.25-9.009-8.326c-5.139-4.06-8.956-7.52-9.188-7.667a80.38,80.38,0,0,1,1.341-29.184c1.523,1.538,5.881,6.812,6.8,17.518.161,1.884.748,7.656,1.563,7.656.766,0,1.487-4.224,1.438-5.546-.587-15.9-8.2-22.1-8.551-22.371a1.416,1.416,0,0,0-.511-.256q.979-3.712,2.267-7.4c4.38,3.049,8.413,8.259,10.741,15.538.642,2.008,2.228,7.711,2.924,7.711.881,0,.46-6.57-.259-8.777-2.657-8.158-7.348-13.991-12.4-17.25,5.441-14.447,10.639-19.438,10.936-23.307a2.234,2.234,0,0,0-1.037-2.361c-1.5-.825-13.926,12.211-13.926,12.211l9.882-6.593s-16.191,24.336-14.691,55.586a80.244,80.244,0,0,0,8.172,31.826c8.62,17.487,19.286,23.423,22.653,25.945-.618,1.757-3.342,6.768-10.373,10.105-6.434,3.053-21.523,4.384-27.282,1.523-.982-.488-7.774-19.908-16.2-41.873-7.241-18.883-10.826-42.9-10.373-47.8.289-3.117,8.359-20.821,15.126-34.974,1.036-2.167,3.035-7.757,2.324-8.1s-3.38,3.672-4.811,6.665c-5.172,10.811-15.111,32.023-15.493,36.149-.607,6.557,3.868,31.659,10.551,49.086,3.548,9.253,6.4,16.919,8.6,23.146-11.039,1.416-24.683,5.681-27.832,3.029a2.009,2.009,0,0,1-.626-1.775c.21-8.205,8.82-53.294,6.877-86.535-.979-16.752,2.516-29.161,5.621-36.62a60.671,60.671,0,0,1,3.221-6.61c2.124-3.745,8.552-12.106,7.725-12.551-.572-.307-7.176,6.243-8.661,8.547a60.48,60.48,0,0,0-4.871,9.37c-5.021,11.988-6.646,25.209-5.9,38.031,1.927,32.971-6.661,77.748-6.88,86.295-.135,5.258,4.921,5.925,10.131,5.4,7.241,16.367,10.592,43.92,16.029,51.174.3,4.869,4.967,18.629,4.85,17.847-1.095-7.34-2.217-29.607-2.065-33.81.444-12.283-6.873-34.819-7.786-37.571,4.28-.845,6.819-.93,11.133-1.448a137.949,137.949,0,0,1,4.552,15c1.738,8.34,22.249,5.074,30.591,2.093,3.119,1.456,5.376,3.907,7.173,7.934-8.512,11.071-20.452,29.9-22.3,43.953-2.643,20.053,32.006,30.3,47.986.871,5.671-10.446,23.428-43.035,34.906-45.969,1.762-.45,3.024-.47,3.751-.057,1.784,1.011,1.694,5.59,7.055,6.2,5.937.673,8.213-7.71,8.983-13.637a77.57,77.57,0,0,0-.089-18.178C3859.957-1422.964,3844.672-1422.339,3839.519-1411.391ZM3733.137-1364.9c-.1,2.722-.2,5.573-.172,8.925-3.73-10.738-7.061-30.923-12.822-44.423,1.039-.163,2.125-.355,3.252-.566a66.369,66.369,0,0,0,4.039,9.216C3733.61-1379.349,3733.57-1376.872,3733.137-1364.9Zm105.961-65.585c-1.223,1.8-1.385,2.07-1.862,4.876a18.251,18.251,0,0,1-.457,2.852,3.92,3.92,0,0,1-1.785-.45c-1.123-.461-2.174-1.793-2.959-3.75-1.225-3.053-1.352-6.472-1.01-7.241a2.8,2.8,0,0,1,2.526-1.394c1.246.321,2.917,2.839,2.24,1.744-.76-1.231-2.666-6.657-2.574-7.524.054-.514,1.34-.246,1.633-.3.8-.058,2.529,3.4,2.284,2.446-.5-1.955-.963-7.952-.331-8.312s3.341,2.164,3.9,11.835A7.342,7.342,0,0,1,3839.1-1430.484Zm-13.983-95.547c6.708,8.3,14.713,11.586,24.667,13.964,10.744,2.567,13.075,11.633,9.4,22.014-1.4,3.942-7.967,17.688-19.531,40.868-3.168-3.144-7.132-.047-6.581,5.172a3.527,3.527,0,0,0-1.766,2.777,7.976,7.976,0,0,0,.825,3.656,4.031,4.031,0,0,0-3.719,2.218c-.688,1.549-.493,4.79.388,7.788-8.588,17.012-16.856,33.208-21.313,41.919-.565-5.568-7.794-10.561-12.514-13.547,4.26-12.953,19.354-35.571,28.04-47.99,9.455-13.519,19.4-31.557,27.358-46.17,1.845-3.39,4.037-6.58,2.551-10.137-2.828-6.767-17.1-7.582-25.379-11.721-7.575-3.788-16.487-16.566-20.905-23.793.348-.392,1.62-1.845,1.907-2.177C3813.707-1537.232,3821.018-1531.1,3825.115-1526.031Zm-17.09,96.1-2.954-1.877a80.773,80.773,0,0,0,3.856-13.885c4.344-2.266,10.552-7.45,14.411-11.4.881-.9,1.674-1.344,2.233-1.243a1.691,1.691,0,0,1,.936.688C3820.421-1448.053,3816.756-1443.7,3808.025-1429.928Zm-4.459-101.616c-.717,1.444-1.286,2.562-2.225,3.1,1.959-4.573,1.183-5.147,2.633-6.489a5.534,5.534,0,0,1,1.828-1.094c-.471.927-1.5,3.31-1.146,4.3a25.108,25.108,0,0,1,1.354-2.889c.642.992,1.4,2.129,2.243,3.355a8.537,8.537,0,0,1-2.255,3.288,7.884,7.884,0,0,1-3.673,2.068S3803.758-1529.793,3803.565-1531.544Zm8.292-14.116a4.846,4.846,0,0,1,1.028,3.349l-.635-.873a2.753,2.753,0,0,1-.489,1.691A16.382,16.382,0,0,1,3811.858-1545.66Zm-8.577-.612c1.265-.859,3.407-1.9,5.523-1.043l-1.029,1.213,1.975-.22a12.345,12.345,0,0,1-1.725,1.755,5.835,5.835,0,0,1-2.4.879c.046-.048,1.312-1.326,1.312-1.326-1.783.2-3.123.342-3.1.317s.517-.454.978-.85l.761-.652c-.908.2-2.513.568-3.437.833A9.166,9.166,0,0,1,3803.281-1546.272Zm3.143,8.37a9.3,9.3,0,0,0-3.048,2.009,10.752,10.752,0,0,0-2.119,3.522c.025-.07-.264-3.021,1.977-4.464l-2.219.12A5.968,5.968,0,0,1,3806.424-1537.9Zm-14.52-1.631c.306,3.078,1.234,8.514,1.234,8.514l-1.63-.842c-.171,1.518,2.405,6.531,2.405,6.531C3788.44-1529.162,3790.579-1535.322,3791.9-1539.532Zm-3.662-5.949a17.319,17.319,0,0,0-1.3,4.547,4.185,4.185,0,0,1-.28-3.907,12.636,12.636,0,0,0,.8-5.517A5.275,5.275,0,0,1,3788.241-1545.481Zm40.255-21.676c1.487,2.824,1.551,4.316,1.457,4.775a6.981,6.981,0,0,1-3-2.1c-2.962-3.254-6.254-7.442-16.841-18.63.006-.039.014-.077.02-.116,7.521,2.34,9.808,3.423,11.976,4.141C3822.625-1578.148,3825.127-1573.56,3828.5-1567.157Zm-56.427-25.349a133.086,133.086,0,0,1,7.615-13.52c1-1.546,4.178-4.391,13.73-3.5a65,65,0,0,1,9.937,1.817c14.659,3.735,18.8,15.125,20.791,20.6.719,1.977,1.961,4.987,1.948,5.954-.406.042-1.622-.043-4.957-1.331-10.3-3.98-30.246-9.836-41.739-9.836a17.4,17.4,0,0,0-7.635,1.421A4.274,4.274,0,0,1,3772.069-1592.506Zm9.22,46.384c-.019,1.265-.795,2.346-1.187,3.923-.457,1.254-.78,2.2-.855,2.547-3.143-3.344-4.08-5.933-8.514-11.9-2.76-3.713-7.513-7.411-12.147-8.661,2.7-2.538,11.373-9.879,11.865-10.148.6,1.039,3.323,4.123,4.235,5.688,2.319,3.973,4.1-.488,5-.568a1.9,1.9,0,0,1,.987.594c1.785,1.61,1.87,3.278,3.475,3.542a2.759,2.759,0,0,0,2.059-.637,1.433,1.433,0,0,0,1.182.7c-.169.317-.336.653-.5,1.011-1.857,4.114.256,2.328-2.586,3.653a7.7,7.7,0,0,0-3.792,3.97,7.465,7.465,0,0,1,2.893-1.515,6.6,6.6,0,0,0-3.218,5.031c-.324,3.516-2.168,4.923-2.168,4.923A3.405,3.405,0,0,0,3781.29-1546.121Zm1.262,13.2c1.092,1.929,2.109,3.41,2.109,3.41a3.985,3.985,0,0,1,1.212-2.825c.075.238,1.292,6.219,3.042,7.689,2.722,2.286,5.207,7.458,5.207,7.458s6.77-1.549,11.37-6.139a20,20,0,0,0,4.112-6.017c4.429,6.169,10.7,13.707,16.655,16.686,7.927,3.964,21.947,5.313,24.016,10.263.512,1.226.268,2.725-.747,4.584-5.619,10.289-13.2,24.4-21.447,37.658-1.685-1.5-4.072-.164-6.708,2.536-3.819,3.912-10.042,7.507-13.969,9.488-2.474-.322-15.386-2.112-22.133-5.232.1-15.638.145-29.035-1.275-45.368C3782.182-1519.563,3782.269-1528.92,3782.552-1532.919Zm2.7,82.676c6.6,2.688,16.839,4.282,20.7,4.816-.687,3.408-2.578,11.849-5.163,15.757-2.695,4.076-6.373,10.333-7.884,12.929-1.932-1.078-4.9-3.02-5.915-4.9C3785.417-1430.17,3785.185-1436.09,3785.251-1450.244ZM3788-1416.5a30.548,30.548,0,0,0,4.834,2.961,1.434,1.434,0,0,0,1.864-.577c5.485-9.565,8.438-13.788,9.14-15.069l2.659,1.689c-5.942,9.537-11.509,19.476-14.038,26.766-1.554-.919-1.4-.764-1.286-.852a3.849,3.849,0,0,0,.864-2.906C3792.02-1404.535,3790.03-1406.881,3788-1416.5Zm-10.189,28.368c6.829-3.456,10.132-8.589,11.143-11.305,1.532.853,8.758,4.969,12.369,8.617,3.375,3.411,3.863,5.682,2.872,7.861a20.479,20.479,0,0,0-4.97-6.07,1.432,1.432,0,0,0-2.013.221,1.434,1.434,0,0,0,.219,2.014c1.614,1.3,5.641,5.443,4.894,8.951a19.159,19.159,0,0,1-1.808,5.739,3.509,3.509,0,0,1-1.81,1.6,75.942,75.942,0,0,0-.29-10.952c-.077-.788-1.4-3.031-2.188-2.954s-.741,2.447-.664,3.233c.249,2.548.949,11.991-.577,14.279-1.921-2.452-2.464-11.364-2.536-14.452-.018-.787-1.067-3.105-1.478-3.084s-1.406,2.359-1.387,3.151a80.947,80.947,0,0,0,.72,8.674c.087,2.4-.074,6.466-.825,8.4C3786.493-1370.237,3786.121-1382.586,3777.813-1388.137Zm75.569,11.492c-2.088-.236-2.645-1.3-3.417-2.772-1.062-2.027-.905-7.3-6.81-5.787-8.708,2.225-21.985,19.773-38.327,49.871-14.427,26.571-44.849,17.741-42.625.871,1.983-15.05,16.129-35.067,20.673-41.174.282.849.554,1.749.816,2.707,2.507,9.175,3.54,11.885,5.55,12.171,2.1.3,3.05-2.345,3.457-4.43,1.939,2.516,4.713,1.342,5.585-2.278,3.139-.455,4.692-2.581,5.64-5.172,6.019-12.531,15.477-21.583,22.508-27.05a49.591,49.591,0,0,1,15.253-8.267c.326-.148,1.254-9.1,8.778-9.1,3.959,0,7.727,3.818,8.641,11.772C3860.913-1389.576,3858.137-1376.114,3853.382-1376.645Z" transform="translate(-3671.832 1666.308)" fill="#fff"/>
    <path id="Path_3339" data-name="Path 3339" d="M4383.1-1312.514l-1.426.931-1.407.919-.338.22-2.093-1.947-7.686-7.15c-1.565-1.456-9.56-4.88-8.207-3.62l1,.831,13.876,12.91.636.592-1.051.687s-3.518,3.063-3.085,3.726a1.427,1.427,0,0,0,1.749.537c.194-.081-.078.083,3.758-2.422,6.307-4.119,6.029-3.873,6.265-4.246A1.434,1.434,0,0,0,4383.1-1312.514Z" transform="translate(-4232.736 1418.635)" fill="#ff502e"/>
    <g id="Group_2154" data-name="Group 2154" transform="translate(109.984 94.974)">
      <path id="Path_3340" data-name="Path 3340" d="M4482.106-1239.82c-.513,1.478-1,2.989-1.439,4.363,6.307-4.119,6.029-3.873,6.266-4.246a14.289,14.289,0,0,1-3.419-1.036Z" transform="translate(-4444.559 1252.817)" fill="#ff502e"/>
      <path id="Path_3341" data-name="Path 3341" d="M4440.85-1213a1.426,1.426,0,0,0,1.749.537s.912-2.943,1.336-4.263l-2.669,1.742A1.434,1.434,0,0,0,4440.85-1213Z" transform="translate(-4410.249 1232.247)" fill="#ff502e"/>
      <path id="Path_3342" data-name="Path 3342" d="M4369.262-1320.9c-1.565-1.457-9.711-5.12-8.358-3.861l1.152,1.071,13.877,12.91c.325-.986.666-1.99,1.015-2.97Z" transform="translate(-4341.83 1325.016)" fill="#ff502e"/>
      <path id="Path_3343" data-name="Path 3343" d="M4459.307-1244.429l-2.093-1.947c-.35.981-.691,1.984-1.016,2.97l.636.592-1.051.687c-.424,1.321-1.336,4.264-1.336,4.264.194-.081-.078.083,3.758-2.422.436-1.375.926-2.886,1.44-4.364Z" transform="translate(-4422.096 1257.647)" fill="#ff502e"/>
      <path id="Path_3344" data-name="Path 3344" d="M4501.959-1248.684l-1.426.931a14.292,14.292,0,0,0,3.418,1.036A1.434,1.434,0,0,0,4501.959-1248.684Z" transform="translate(-4461.578 1259.831)" fill="#ff502e"/>
      <path id="Path_3345" data-name="Path 3345" d="M4464.82-1225.059l-.636-.592c-.141.431-.28.858-.416,1.279Z" transform="translate(-4430.082 1239.891)" fill="#4b8c70"/>
      <path id="Path_3346" data-name="Path 3346" d="M4674.676-754.628c-.718-.337-6.546,10.589-7.791,13.274-.566,1.221-1.782,5.842-.782,5.842.566,0,2.8-3.38,3.292-4.442,1.193-2.574,1.342-2.9,3.162-6.78C4672.824-747.3,4675.392-754.292,4674.676-754.628Z" transform="translate(-4603.092 836.38)" fill="#950550"/>
      <path id="Path_3347" data-name="Path 3347" d="M4428.906-437.542c-.695-.379-8.041,12.434-8.041,12.434l-8.078,14.843s-4.021,9.837-2.943,9.837c.507,0,4.92-7.474,4.92-7.474l8.4-15.429S4429.6-437.164,4428.906-437.542Z" transform="translate(-4383.729 564.738)" fill="#950550"/>
      <path id="Path_3348" data-name="Path 3348" d="M4493.166-26.279c2.418,3.609,2.789,7.59,4.2,11.525C4499.745-18.318,4498.284-26.022,4493.166-26.279Z" transform="translate(-4455.267 212.408)" fill="#950550"/>
      <path id="Path_3349" data-name="Path 3349" d="M4444.66,27.361c.37-4.657-4.335-10.823-9.378-9.977C4438.866,20.379,4441.426,24.082,4444.66,27.361Z" transform="translate(-4405.678 175.07)" fill="#950550"/>
      <path id="Path_3350" data-name="Path 3350" d="M4413.369,63.22c-.98,3.995,3.3,8.656,7.129,8.886C4418.81,68.912,4415.87,65.8,4413.369,63.22Z" transform="translate(-4386.784 135.736)" fill="#950550"/>
      <path id="Path_3351" data-name="Path 3351" d="M4245.59,138.83a3.738,3.738,0,0,1-.43.761c-.081.121-.162.242-.247.361s-.165.239-.252.357c-.339.474-.684.943-1.03,1.41l-2.074,2.789c-1.382,1.852-2.757,3.7-4.15,5.522s-2.795,3.641-4.234,5.435c-.721.9-1.446,1.794-2.19,2.684-.181.229-.375.443-.561.669l-.279.338-.285.333c-.375.452-.765.891-1.14,1.361a24.282,24.282,0,0,0,5.85-4.072,39.6,39.6,0,0,0,4.778-5.272,43.736,43.736,0,0,0,3.827-5.979,33.8,33.8,0,0,0,1.5-3.229c.217-.555.424-1.114.6-1.69.043-.143.086-.287.123-.433s.075-.291.106-.439.059-.3.081-.447c.011-.075.015-.153.021-.228A1.348,1.348,0,0,0,4245.59,138.83Z" transform="translate(-4228.718 70.962)" fill="#950550"/>
    </g>
    <circle id="Ellipse_23" data-name="Ellipse 23" cx="3.096" cy="3.096" r="3.096" transform="translate(118.917 284.955)" fill="#ff502e"/>
  </g>
</svg>